<?xml version="1.0" ?><svg xmlns="http://www.w3.org/2000/svg" xmlns:xlink="http://www.w3.org/1999/xlink" version="1.1" viewBox="0 0 64 64" style="enable-background:new 0 0 64 64;" xml:space="preserve"><g id="Layer_2"/><g id="Layer_3"><g><path d="M32,44.9c-8.8,0-17-4.7-21.5-12.3c-0.2-0.3-0.2-0.7,0-1c4.4-7.7,12.6-12.4,21.5-12.5c0,0,0.1,0,0.1,0    c8.8,0,17,4.7,21.5,12.3c0.2,0.3,0.2,0.7,0,1C49.1,40.1,40.9,44.9,32,44.9C32,44.9,32,44.9,32,44.9z M12.5,32.1    C16.7,38.8,24.1,43,32,42.9c7.9,0,15.3-4.2,19.4-11C47.3,25.2,39.9,21.1,32,21.1c0,0,0,0-0.1,0C24,21.1,16.6,25.3,12.5,32.1z"/></g><g><path d="M32,44.9c-8.8,0-17-4.7-21.5-12.3c-0.2-0.3-0.2-0.7,0-1c4.4-7.7,12.6-12.4,21.5-12.5c0,0,0.1,0,0.1,0    c8.8,0,17,4.7,21.5,12.3c0.2,0.3,0.2,0.7,0,1C49.1,40.1,40.9,44.9,32,44.9C32,44.9,32,44.9,32,44.9z M12.5,32.1    C16.7,38.8,24.1,43,32,42.9c7.9,0,15.3-4.2,19.4-11C47.3,25.2,39.9,21.1,32,21.1c0,0,0,0-0.1,0C24,21.1,16.6,25.3,12.5,32.1z"/></g><g><path d="M32,37.2c-2.9,0-5.2-2.3-5.2-5.2c0-1.4,0.5-2.7,1.5-3.7s2.3-1.5,3.7-1.5c0,0,0,0,0,0c2.9,0,5.2,2.3,5.2,5.2l0,0    c0,1.4-0.5,2.7-1.5,3.7S33.4,37.2,32,37.2C32,37.2,32,37.2,32,37.2z M32,28.8C32,28.8,32,28.8,32,28.8c-0.9,0-1.7,0.3-2.3,0.9    s-0.9,1.4-0.9,2.3c0,1.8,1.4,3.2,3.2,3.2c0,0,0,0,0,0c0.9,0,1.6-0.3,2.2-0.9s0.9-1.4,0.9-2.3l0,0C35.2,30.2,33.8,28.8,32,28.8z"/></g></g></svg>